<?xml version="1.0" encoding="UTF-8"?>
<!DOCTYPE svg PUBLIC "-//W3C//DTD SVG 1.1//EN" "http://www.w3.org/Graphics/SVG/1.1/DTD/svg11.dtd">
<svg width="207mm" height="117mm" viewBox="0 0 20700 11700" version="1.1" xmlns="http://www.w3.org/2000/svg" xmlns:xlink="http://www.w3.org/1999/xlink" stroke-width="28.222" stroke-linejoin="round" xml:space="preserve">
 <path fill="rgb(255,255,255)" stroke="none" d="M 10374,11665 L 0,11665 0,0 20747,0 20747,11665 10374,11665 Z"/>
 <path fill="none" stroke="rgb(179,179,179)" stroke-linejoin="round" d="M 8470,9512 L 2153,9512 2153,1580 14787,1580 14787,9512 8470,9512 Z"/>
 <path fill="none" stroke="rgb(179,179,179)" stroke-linejoin="round" d="M 14787,9511 L 2153,9511"/>
 <path fill="none" stroke="rgb(179,179,179)" stroke-linejoin="round" d="M 14787,8188 L 2153,8188"/>
 <path fill="none" stroke="rgb(179,179,179)" stroke-linejoin="round" d="M 14787,6866 L 2153,6866"/>
 <path fill="none" stroke="rgb(179,179,179)" stroke-linejoin="round" d="M 14787,5545 L 2153,5545"/>
 <path fill="none" stroke="rgb(179,179,179)" stroke-linejoin="round" d="M 14787,4223 L 2153,4223"/>
 <path fill="none" stroke="rgb(179,179,179)" stroke-linejoin="round" d="M 14787,2901 L 2153,2901"/>
 <path fill="none" stroke="rgb(179,179,179)" stroke-linejoin="round" d="M 14787,1579 L 2153,1579"/>
 <path fill="none" stroke="rgb(179,179,179)" stroke-linejoin="round" d="M 2153,9661 L 2153,9511"/>
 <path fill="none" stroke="rgb(179,179,179)" stroke-linejoin="round" d="M 2153,9661 L 2153,9511"/>
 <path fill="none" stroke="rgb(179,179,179)" stroke-linejoin="round" d="M 3732,9661 L 3732,9511"/>
 <path fill="none" stroke="rgb(179,179,179)" stroke-linejoin="round" d="M 3732,9661 L 3732,9511"/>
 <path fill="none" stroke="rgb(179,179,179)" stroke-linejoin="round" d="M 5311,9661 L 5311,9511"/>
 <path fill="none" stroke="rgb(179,179,179)" stroke-linejoin="round" d="M 5311,9661 L 5311,9511"/>
 <path fill="none" stroke="rgb(179,179,179)" stroke-linejoin="round" d="M 6891,9661 L 6891,9511"/>
 <path fill="none" stroke="rgb(179,179,179)" stroke-linejoin="round" d="M 6891,9661 L 6891,9511"/>
 <path fill="none" stroke="rgb(179,179,179)" stroke-linejoin="round" d="M 8470,9661 L 8470,9511"/>
 <path fill="none" stroke="rgb(179,179,179)" stroke-linejoin="round" d="M 8470,9661 L 8470,9511"/>
 <path fill="none" stroke="rgb(179,179,179)" stroke-linejoin="round" d="M 10049,9661 L 10049,9511"/>
 <path fill="none" stroke="rgb(179,179,179)" stroke-linejoin="round" d="M 10049,9661 L 10049,9511"/>
 <path fill="none" stroke="rgb(179,179,179)" stroke-linejoin="round" d="M 11628,9661 L 11628,9511"/>
 <path fill="none" stroke="rgb(179,179,179)" stroke-linejoin="round" d="M 11628,9661 L 11628,9511"/>
 <path fill="none" stroke="rgb(179,179,179)" stroke-linejoin="round" d="M 13207,9661 L 13207,9511"/>
 <path fill="none" stroke="rgb(179,179,179)" stroke-linejoin="round" d="M 13207,9661 L 13207,9511"/>
 <path fill="none" stroke="rgb(179,179,179)" stroke-linejoin="round" d="M 14787,9661 L 14787,9511"/>
 <path fill="none" stroke="rgb(179,179,179)" stroke-linejoin="round" d="M 14787,9661 L 14787,9511"/>
 <path fill="none" stroke="rgb(179,179,179)" stroke-linejoin="round" d="M 2153,9511 L 14787,9511"/>
 <path fill="none" stroke="rgb(179,179,179)" stroke-linejoin="round" d="M 2003,9511 L 2153,9511"/>
 <path fill="none" stroke="rgb(179,179,179)" stroke-linejoin="round" d="M 2003,9511 L 2153,9511"/>
 <path fill="none" stroke="rgb(179,179,179)" stroke-linejoin="round" d="M 2003,8188 L 2153,8188"/>
 <path fill="none" stroke="rgb(179,179,179)" stroke-linejoin="round" d="M 2003,8188 L 2153,8188"/>
 <path fill="none" stroke="rgb(179,179,179)" stroke-linejoin="round" d="M 2003,6866 L 2153,6866"/>
 <path fill="none" stroke="rgb(179,179,179)" stroke-linejoin="round" d="M 2003,6866 L 2153,6866"/>
 <path fill="none" stroke="rgb(179,179,179)" stroke-linejoin="round" d="M 2003,5545 L 2153,5545"/>
 <path fill="none" stroke="rgb(179,179,179)" stroke-linejoin="round" d="M 2003,5545 L 2153,5545"/>
 <path fill="none" stroke="rgb(179,179,179)" stroke-linejoin="round" d="M 2003,4223 L 2153,4223"/>
 <path fill="none" stroke="rgb(179,179,179)" stroke-linejoin="round" d="M 2003,4223 L 2153,4223"/>
 <path fill="none" stroke="rgb(179,179,179)" stroke-linejoin="round" d="M 2003,2901 L 2153,2901"/>
 <path fill="none" stroke="rgb(179,179,179)" stroke-linejoin="round" d="M 2003,2901 L 2153,2901"/>
 <path fill="none" stroke="rgb(179,179,179)" stroke-linejoin="round" d="M 2003,1579 L 2153,1579"/>
 <path fill="none" stroke="rgb(179,179,179)" stroke-linejoin="round" d="M 2003,1579 L 2153,1579"/>
 <path fill="none" stroke="rgb(179,179,179)" stroke-linejoin="round" d="M 2153,9511 L 2153,1579"/>
 <path fill="rgb(255,66,14)" stroke="none" d="M 3607,6102 L 3732,6227 3857,6102 3732,5977 3607,6102 Z"/>
 <path fill="none" stroke="rgb(255,66,14)" stroke-linejoin="round" d="M 3607,6102 L 3732,6227 3857,6102 3732,5977 3607,6102 Z"/>
 <path fill="rgb(255,66,14)" stroke="none" d="M 5186,5612 L 5311,5737 5436,5612 5311,5487 5186,5612 Z"/>
 <path fill="none" stroke="rgb(255,66,14)" stroke-linejoin="round" d="M 5186,5612 L 5311,5737 5436,5612 5311,5487 5186,5612 Z"/>
 <path fill="rgb(255,66,14)" stroke="none" d="M 6766,5692 L 6891,5817 7016,5692 6891,5567 6766,5692 Z"/>
 <path fill="none" stroke="rgb(255,66,14)" stroke-linejoin="round" d="M 6766,5692 L 6891,5817 7016,5692 6891,5567 6766,5692 Z"/>
 <path fill="rgb(255,66,14)" stroke="none" d="M 11503,5498 L 11628,5623 11753,5498 11628,5373 11503,5498 Z"/>
 <path fill="none" stroke="rgb(255,66,14)" stroke-linejoin="round" d="M 11503,5498 L 11628,5623 11753,5498 11628,5373 11503,5498 Z"/>
 <path fill="rgb(255,66,14)" stroke="none" d="M 13872,5472 L 13997,5597 14122,5472 13997,5347 13872,5472 Z"/>
 <path fill="none" stroke="rgb(255,66,14)" stroke-linejoin="round" d="M 13872,5472 L 13997,5597 14122,5472 13997,5347 13872,5472 Z"/>
 <path fill="rgb(255,66,14)" stroke="none" d="M 9135,5501 L 9260,5626 9385,5501 9260,5376 9135,5501 Z"/>
 <path fill="none" stroke="rgb(255,66,14)" stroke-linejoin="round" d="M 9135,5501 L 9260,5626 9385,5501 9260,5376 9135,5501 Z"/>
 <path fill="rgb(255,211,32)" stroke="none" d="M 3607,5568 L 3732,5818 3857,5568 3607,5568 Z"/>
 <path fill="none" stroke="rgb(255,211,32)" stroke-linejoin="round" d="M 3607,5568 L 3732,5818 3857,5568 3607,5568 Z"/>
 <path fill="rgb(255,211,32)" stroke="none" d="M 5186,4620 L 5311,4870 5436,4620 5186,4620 Z"/>
 <path fill="none" stroke="rgb(255,211,32)" stroke-linejoin="round" d="M 5186,4620 L 5311,4870 5436,4620 5186,4620 Z"/>
 <path fill="rgb(255,211,32)" stroke="none" d="M 6766,4432 L 6891,4682 7016,4432 6766,4432 Z"/>
 <path fill="none" stroke="rgb(255,211,32)" stroke-linejoin="round" d="M 6766,4432 L 6891,4682 7016,4432 6766,4432 Z"/>
 <path fill="rgb(255,211,32)" stroke="none" d="M 11503,3983 L 11628,4233 11753,3983 11503,3983 Z"/>
 <path fill="none" stroke="rgb(255,211,32)" stroke-linejoin="round" d="M 11503,3983 L 11628,4233 11753,3983 11503,3983 Z"/>
 <path fill="rgb(255,211,32)" stroke="none" d="M 13872,3872 L 13997,4122 14122,3872 13872,3872 Z"/>
 <path fill="none" stroke="rgb(255,211,32)" stroke-linejoin="round" d="M 13872,3872 L 13997,4122 14122,3872 13872,3872 Z"/>
 <path fill="rgb(255,211,32)" stroke="none" d="M 9135,4304 L 9260,4554 9385,4304 9135,4304 Z"/>
 <path fill="none" stroke="rgb(255,211,32)" stroke-linejoin="round" d="M 9135,4304 L 9260,4554 9385,4304 9135,4304 Z"/>
 <path fill="rgb(0,69,134)" stroke="none" d="M 3607,7034 L 3607,7284 3857,7284 3857,7034 3607,7034 Z"/>
 <path fill="none" stroke="rgb(0,69,134)" stroke-linejoin="round" d="M 3607,7034 L 3607,7284 3857,7284 3857,7034 3607,7034 Z"/>
 <path fill="rgb(0,69,134)" stroke="none" d="M 5186,6569 L 5186,6819 5436,6819 5436,6569 5186,6569 Z"/>
 <path fill="none" stroke="rgb(0,69,134)" stroke-linejoin="round" d="M 5186,6569 L 5186,6819 5436,6819 5436,6569 5186,6569 Z"/>
 <path fill="rgb(0,69,134)" stroke="none" d="M 6766,6566 L 6766,6816 7016,6816 7016,6566 6766,6566 Z"/>
 <path fill="none" stroke="rgb(0,69,134)" stroke-linejoin="round" d="M 6766,6566 L 6766,6816 7016,6816 7016,6566 6766,6566 Z"/>
 <path fill="rgb(0,69,134)" stroke="none" d="M 11503,6681 L 11503,6931 11753,6931 11753,6681 11503,6681 Z"/>
 <path fill="none" stroke="rgb(0,69,134)" stroke-linejoin="round" d="M 11503,6681 L 11503,6931 11753,6931 11753,6681 11503,6681 Z"/>
 <path fill="rgb(0,69,134)" stroke="none" d="M 13872,6880 L 13872,7130 14122,7130 14122,6880 13872,6880 Z"/>
 <path fill="none" stroke="rgb(0,69,134)" stroke-linejoin="round" d="M 13872,6880 L 13872,7130 14122,7130 14122,6880 13872,6880 Z"/>
 <path fill="rgb(0,69,134)" stroke="none" d="M 9135,6680 L 9135,6930 9385,6930 9385,6680 9135,6680 Z"/>
 <path fill="none" stroke="rgb(0,69,134)" stroke-linejoin="round" d="M 9135,6680 L 9135,6930 9385,6930 9385,6680 9135,6680 Z"/>
 <text class="TextShape"><tspan class="TextParagraph" font-family="Liberation Sans, sans-serif" font-size="353px" font-weight="400"><tspan class="TextPosition" x="1968" y="10079"><tspan fill="rgb(0,0,0)" stroke="none">18</tspan></tspan></tspan></text>
 <text class="TextShape"><tspan class="TextParagraph" font-family="Liberation Sans, sans-serif" font-size="353px" font-weight="400"><tspan class="TextPosition" x="3547" y="10079"><tspan fill="rgb(0,0,0)" stroke="none">20</tspan></tspan></tspan></text>
 <text class="TextShape"><tspan class="TextParagraph" font-family="Liberation Sans, sans-serif" font-size="353px" font-weight="400"><tspan class="TextPosition" x="5126" y="10079"><tspan fill="rgb(0,0,0)" stroke="none">22</tspan></tspan></tspan></text>
 <text class="TextShape"><tspan class="TextParagraph" font-family="Liberation Sans, sans-serif" font-size="353px" font-weight="400"><tspan class="TextPosition" x="6706" y="10079"><tspan fill="rgb(0,0,0)" stroke="none">24</tspan></tspan></tspan></text>
 <text class="TextShape"><tspan class="TextParagraph" font-family="Liberation Sans, sans-serif" font-size="353px" font-weight="400"><tspan class="TextPosition" x="8285" y="10079"><tspan fill="rgb(0,0,0)" stroke="none">26</tspan></tspan></tspan></text>
 <text class="TextShape"><tspan class="TextParagraph" font-family="Liberation Sans, sans-serif" font-size="353px" font-weight="400"><tspan class="TextPosition" x="9864" y="10079"><tspan fill="rgb(0,0,0)" stroke="none">28</tspan></tspan></tspan></text>
 <text class="TextShape"><tspan class="TextParagraph" font-family="Liberation Sans, sans-serif" font-size="353px" font-weight="400"><tspan class="TextPosition" x="11444" y="10079"><tspan fill="rgb(0,0,0)" stroke="none">30</tspan></tspan></tspan></text>
 <text class="TextShape"><tspan class="TextParagraph" font-family="Liberation Sans, sans-serif" font-size="353px" font-weight="400"><tspan class="TextPosition" x="13023" y="10079"><tspan fill="rgb(0,0,0)" stroke="none">32</tspan></tspan></tspan></text>
 <text class="TextShape"><tspan class="TextParagraph" font-family="Liberation Sans, sans-serif" font-size="353px" font-weight="400"><tspan class="TextPosition" x="14603" y="10079"><tspan fill="rgb(0,0,0)" stroke="none">34</tspan></tspan></tspan></text>
 <text class="TextShape"><tspan class="TextParagraph" font-family="Liberation Sans, sans-serif" font-size="353px" font-weight="400"><tspan class="TextPosition" x="1718" y="9632"><tspan fill="rgb(0,0,0)" stroke="none">6</tspan></tspan></tspan></text>
 <text class="TextShape"><tspan class="TextParagraph" font-family="Liberation Sans, sans-serif" font-size="353px" font-weight="400"><tspan class="TextPosition" x="1718" y="8309"><tspan fill="rgb(0,0,0)" stroke="none">7</tspan></tspan></tspan></text>
 <text class="TextShape"><tspan class="TextParagraph" font-family="Liberation Sans, sans-serif" font-size="353px" font-weight="400"><tspan class="TextPosition" x="1718" y="6987"><tspan fill="rgb(0,0,0)" stroke="none">8</tspan></tspan></tspan></text>
 <text class="TextShape"><tspan class="TextParagraph" font-family="Liberation Sans, sans-serif" font-size="353px" font-weight="400"><tspan class="TextPosition" x="1718" y="5665"><tspan fill="rgb(0,0,0)" stroke="none">9</tspan></tspan></tspan></text>
 <text class="TextShape"><tspan class="TextParagraph" font-family="Liberation Sans, sans-serif" font-size="353px" font-weight="400"><tspan class="TextPosition" x="1533" y="4343"><tspan fill="rgb(0,0,0)" stroke="none">10</tspan></tspan></tspan></text>
 <text class="TextShape"><tspan class="TextParagraph" font-family="Liberation Sans, sans-serif" font-size="353px" font-weight="400"><tspan class="TextPosition" x="1533" y="3021"><tspan fill="rgb(0,0,0)" stroke="none">11</tspan></tspan></tspan></text>
 <text class="TextShape"><tspan class="TextParagraph" font-family="Liberation Sans, sans-serif" font-size="353px" font-weight="400"><tspan class="TextPosition" x="1533" y="1699"><tspan fill="rgb(0,0,0)" stroke="none">12</tspan></tspan></tspan></text>
 <text class="TextShape"><tspan class="TextParagraph" font-family="Liberation Sans, sans-serif" font-size="459px" font-weight="400"><tspan class="TextPosition" x="8059" y="904"><tspan fill="rgb(0,0,0)" stroke="none">σ for different SB range</tspan></tspan></tspan></text>
 <path fill="rgb(0,69,134)" stroke="none" d="M 15689,5229 L 15689,5440 15900,5440 15900,5229 15689,5229 Z"/>
 <path fill="none" stroke="rgb(0,69,134)" stroke-linejoin="round" d="M 15689,5229 L 15689,5440 15900,5440 15900,5229 15689,5229 Z"/>
 <path fill="rgb(255,211,32)" stroke="none" d="M 15689,5727 L 15794,5937 15900,5727 15689,5727 Z"/>
 <path fill="none" stroke="rgb(255,211,32)" stroke-linejoin="round" d="M 15689,5727 L 15794,5937 15900,5727 15689,5727 Z"/>
 <path fill="rgb(255,66,14)" stroke="none" d="M 15689,6329 L 15794,6435 15900,6329 15794,6224 15689,6329 Z"/>
 <path fill="none" stroke="rgb(255,66,14)" stroke-linejoin="round" d="M 15689,6329 L 15794,6435 15900,6329 15794,6224 15689,6329 Z"/>
 <text class="TextShape"><tspan class="TextParagraph" font-family="Liberation Sans, sans-serif" font-size="353px" font-weight="400"><tspan class="TextPosition" x="16000" y="5454"><tspan fill="rgb(0,0,0)" stroke="none">Λ(1520) for NN output &gt; 0.57</tspan></tspan></tspan></text>
 <text class="TextShape"><tspan class="TextParagraph" font-family="Liberation Sans, sans-serif" font-size="353px" font-weight="400"><tspan class="TextPosition" x="16000" y="5951"><tspan fill="rgb(0,0,0)" stroke="none">Λ(1520) for NN output &gt; 0.55</tspan></tspan></tspan></text>
 <text class="TextShape"><tspan class="TextParagraph" font-family="Liberation Sans, sans-serif" font-size="353px" font-weight="400"><tspan class="TextPosition" x="16000" y="6449"><tspan fill="rgb(0,0,0)" stroke="none">Λ(1520) for NN output &gt; 0.59</tspan></tspan></tspan></text>
 <text class="TextShape"><tspan class="TextParagraph" font-family="Liberation Sans, sans-serif" font-size="494px" font-weight="400"><tspan class="TextPosition" x="7366" y="10991"><tspan fill="rgb(0,0,0)" stroke="none">SB range</tspan></tspan></tspan></text>
 <text class="TextShape" transform="rotate(-90 1049 6417)"><tspan class="TextParagraph" font-family="Liberation Sans, sans-serif" font-size="494px" font-weight="400"><tspan class="TextPosition" x="1049" y="6417"><tspan fill="rgb(0,0,0)" stroke="none">σ [μb]</tspan></tspan></tspan></text>
</svg>