<?xml version="1.0" encoding="UTF-8"?>
<!DOCTYPE svg PUBLIC "-//W3C//DTD SVG 1.1//EN" "http://www.w3.org/Graphics/SVG/1.1/DTD/svg11.dtd">
<svg width="206mm" height="127mm" viewBox="0 0 20600 12700" version="1.1" xmlns="http://www.w3.org/2000/svg" xmlns:xlink="http://www.w3.org/1999/xlink" stroke-width="28.222" stroke-linejoin="round" xml:space="preserve">
 <path fill="rgb(255,255,255)" stroke="none" d="M 10316,12696 L 0,12696 0,0 20632,0 20632,12696 10316,12696 Z"/>
 <path fill="none" stroke="rgb(179,179,179)" stroke-linejoin="round" d="M 9108,10523 L 2336,10523 2336,1620 15879,1620 15879,10523 9108,10523 Z"/>
 <path fill="none" stroke="rgb(179,179,179)" stroke-linejoin="round" d="M 15879,10522 L 2336,10522"/>
 <path fill="none" stroke="rgb(179,179,179)" stroke-linejoin="round" d="M 15879,9038 L 2336,9038"/>
 <path fill="none" stroke="rgb(179,179,179)" stroke-linejoin="round" d="M 15879,7554 L 2336,7554"/>
 <path fill="none" stroke="rgb(179,179,179)" stroke-linejoin="round" d="M 15879,6071 L 2336,6071"/>
 <path fill="none" stroke="rgb(179,179,179)" stroke-linejoin="round" d="M 15879,4587 L 2336,4587"/>
 <path fill="none" stroke="rgb(179,179,179)" stroke-linejoin="round" d="M 15879,3103 L 2336,3103"/>
 <path fill="none" stroke="rgb(179,179,179)" stroke-linejoin="round" d="M 15879,1619 L 2336,1619"/>
 <path fill="none" stroke="rgb(179,179,179)" stroke-linejoin="round" d="M 2336,10672 L 2336,10522"/>
 <path fill="none" stroke="rgb(179,179,179)" stroke-linejoin="round" d="M 2336,10672 L 2336,10522"/>
 <path fill="none" stroke="rgb(179,179,179)" stroke-linejoin="round" d="M 3690,10672 L 3690,10522"/>
 <path fill="none" stroke="rgb(179,179,179)" stroke-linejoin="round" d="M 3690,10672 L 3690,10522"/>
 <path fill="none" stroke="rgb(179,179,179)" stroke-linejoin="round" d="M 5044,10672 L 5044,10522"/>
 <path fill="none" stroke="rgb(179,179,179)" stroke-linejoin="round" d="M 5044,10672 L 5044,10522"/>
 <path fill="none" stroke="rgb(179,179,179)" stroke-linejoin="round" d="M 6399,10672 L 6399,10522"/>
 <path fill="none" stroke="rgb(179,179,179)" stroke-linejoin="round" d="M 6399,10672 L 6399,10522"/>
 <path fill="none" stroke="rgb(179,179,179)" stroke-linejoin="round" d="M 7753,10672 L 7753,10522"/>
 <path fill="none" stroke="rgb(179,179,179)" stroke-linejoin="round" d="M 7753,10672 L 7753,10522"/>
 <path fill="none" stroke="rgb(179,179,179)" stroke-linejoin="round" d="M 9108,10672 L 9108,10522"/>
 <path fill="none" stroke="rgb(179,179,179)" stroke-linejoin="round" d="M 9108,10672 L 9108,10522"/>
 <path fill="none" stroke="rgb(179,179,179)" stroke-linejoin="round" d="M 10461,10672 L 10461,10522"/>
 <path fill="none" stroke="rgb(179,179,179)" stroke-linejoin="round" d="M 10461,10672 L 10461,10522"/>
 <path fill="none" stroke="rgb(179,179,179)" stroke-linejoin="round" d="M 11815,10672 L 11815,10522"/>
 <path fill="none" stroke="rgb(179,179,179)" stroke-linejoin="round" d="M 11815,10672 L 11815,10522"/>
 <path fill="none" stroke="rgb(179,179,179)" stroke-linejoin="round" d="M 13170,10672 L 13170,10522"/>
 <path fill="none" stroke="rgb(179,179,179)" stroke-linejoin="round" d="M 13170,10672 L 13170,10522"/>
 <path fill="none" stroke="rgb(179,179,179)" stroke-linejoin="round" d="M 14524,10672 L 14524,10522"/>
 <path fill="none" stroke="rgb(179,179,179)" stroke-linejoin="round" d="M 14524,10672 L 14524,10522"/>
 <path fill="none" stroke="rgb(179,179,179)" stroke-linejoin="round" d="M 15879,10672 L 15879,10522"/>
 <path fill="none" stroke="rgb(179,179,179)" stroke-linejoin="round" d="M 15879,10672 L 15879,10522"/>
 <path fill="none" stroke="rgb(179,179,179)" stroke-linejoin="round" d="M 2336,10522 L 15879,10522"/>
 <path fill="none" stroke="rgb(179,179,179)" stroke-linejoin="round" d="M 2186,10522 L 2336,10522"/>
 <path fill="none" stroke="rgb(179,179,179)" stroke-linejoin="round" d="M 2186,10522 L 2336,10522"/>
 <path fill="none" stroke="rgb(179,179,179)" stroke-linejoin="round" d="M 2186,9038 L 2336,9038"/>
 <path fill="none" stroke="rgb(179,179,179)" stroke-linejoin="round" d="M 2186,9038 L 2336,9038"/>
 <path fill="none" stroke="rgb(179,179,179)" stroke-linejoin="round" d="M 2186,7554 L 2336,7554"/>
 <path fill="none" stroke="rgb(179,179,179)" stroke-linejoin="round" d="M 2186,7554 L 2336,7554"/>
 <path fill="none" stroke="rgb(179,179,179)" stroke-linejoin="round" d="M 2186,6071 L 2336,6071"/>
 <path fill="none" stroke="rgb(179,179,179)" stroke-linejoin="round" d="M 2186,6071 L 2336,6071"/>
 <path fill="none" stroke="rgb(179,179,179)" stroke-linejoin="round" d="M 2186,4587 L 2336,4587"/>
 <path fill="none" stroke="rgb(179,179,179)" stroke-linejoin="round" d="M 2186,4587 L 2336,4587"/>
 <path fill="none" stroke="rgb(179,179,179)" stroke-linejoin="round" d="M 2186,3103 L 2336,3103"/>
 <path fill="none" stroke="rgb(179,179,179)" stroke-linejoin="round" d="M 2186,3103 L 2336,3103"/>
 <path fill="none" stroke="rgb(179,179,179)" stroke-linejoin="round" d="M 2186,1619 L 2336,1619"/>
 <path fill="none" stroke="rgb(179,179,179)" stroke-linejoin="round" d="M 2186,1619 L 2336,1619"/>
 <path fill="none" stroke="rgb(179,179,179)" stroke-linejoin="round" d="M 2336,10522 L 2336,1619"/>
 <path fill="rgb(255,211,32)" stroke="none" d="M 8983,4610 L 9108,4860 9233,4610 8983,4610 Z"/>
 <path fill="none" stroke="rgb(255,211,32)" stroke-linejoin="round" d="M 8983,4610 L 9108,4860 9233,4610 8983,4610 Z"/>
 <path fill="rgb(255,211,32)" stroke="none" d="M 6274,5204 L 6399,5454 6524,5204 6274,5204 Z"/>
 <path fill="none" stroke="rgb(255,211,32)" stroke-linejoin="round" d="M 6274,5204 L 6399,5454 6524,5204 6274,5204 Z"/>
 <path fill="rgb(255,211,32)" stroke="none" d="M 11690,4758 L 11815,5008 11940,4758 11690,4758 Z"/>
 <path fill="none" stroke="rgb(255,211,32)" stroke-linejoin="round" d="M 11690,4758 L 11815,5008 11940,4758 11690,4758 Z"/>
 <path fill="rgb(255,211,32)" stroke="none" d="M 14399,4610 L 14524,4860 14649,4610 14399,4610 Z"/>
 <path fill="none" stroke="rgb(255,211,32)" stroke-linejoin="round" d="M 14399,4610 L 14524,4860 14649,4610 14399,4610 Z"/>
 <path fill="rgb(255,211,32)" stroke="none" d="M 3565,6835 L 3690,7085 3815,6835 3565,6835 Z"/>
 <path fill="none" stroke="rgb(255,211,32)" stroke-linejoin="round" d="M 3565,6835 L 3690,7085 3815,6835 3565,6835 Z"/>
 <path fill="rgb(255,66,14)" stroke="none" d="M 8983,2509 L 9108,2634 9233,2509 9108,2384 8983,2509 Z"/>
 <path fill="none" stroke="rgb(255,66,14)" stroke-linejoin="round" d="M 8983,2509 L 9108,2634 9233,2509 9108,2384 8983,2509 Z"/>
 <path fill="rgb(255,66,14)" stroke="none" d="M 6274,2657 L 6399,2782 6524,2657 6399,2532 6274,2657 Z"/>
 <path fill="none" stroke="rgb(255,66,14)" stroke-linejoin="round" d="M 6274,2657 L 6399,2782 6524,2657 6399,2532 6274,2657 Z"/>
 <path fill="rgb(255,66,14)" stroke="none" d="M 11690,3845 L 11815,3970 11940,3845 11815,3720 11690,3845 Z"/>
 <path fill="none" stroke="rgb(255,66,14)" stroke-linejoin="round" d="M 11690,3845 L 11815,3970 11940,3845 11815,3720 11690,3845 Z"/>
 <path fill="rgb(255,66,14)" stroke="none" d="M 14399,3251 L 14524,3376 14649,3251 14524,3126 14399,3251 Z"/>
 <path fill="none" stroke="rgb(255,66,14)" stroke-linejoin="round" d="M 14399,3251 L 14524,3376 14649,3251 14524,3126 14399,3251 Z"/>
 <path fill="rgb(0,69,134)" stroke="none" d="M 8983,9202 L 8983,9452 9233,9452 9233,9202 8983,9202 Z"/>
 <path fill="none" stroke="rgb(0,69,134)" stroke-linejoin="round" d="M 8983,9202 L 8983,9452 9233,9452 9233,9202 8983,9202 Z"/>
 <path fill="rgb(0,69,134)" stroke="none" d="M 6274,8936 L 6274,9186 6524,9186 6524,8936 6274,8936 Z"/>
 <path fill="none" stroke="rgb(0,69,134)" stroke-linejoin="round" d="M 6274,8936 L 6274,9186 6524,9186 6524,8936 6274,8936 Z"/>
 <path fill="rgb(0,69,134)" stroke="none" d="M 11690,9056 L 11690,9306 11940,9306 11940,9056 11690,9056 Z"/>
 <path fill="none" stroke="rgb(0,69,134)" stroke-linejoin="round" d="M 11690,9056 L 11690,9306 11940,9306 11940,9056 11690,9056 Z"/>
 <path fill="rgb(0,69,134)" stroke="none" d="M 14399,8945 L 14399,9195 14649,9195 14649,8945 14399,8945 Z"/>
 <path fill="none" stroke="rgb(0,69,134)" stroke-linejoin="round" d="M 14399,8945 L 14399,9195 14649,9195 14649,8945 14399,8945 Z"/>
 <path fill="rgb(0,69,134)" stroke="none" d="M 3565,8948 L 3565,9198 3815,9198 3815,8948 3565,8948 Z"/>
 <path fill="none" stroke="rgb(0,69,134)" stroke-linejoin="round" d="M 3565,8948 L 3565,9198 3815,9198 3815,8948 3565,8948 Z"/>
 <text class="TextShape"><tspan class="TextParagraph" font-family="Liberation Sans, sans-serif" font-size="353px" font-weight="400"><tspan class="TextPosition" x="2005" y="11090"><tspan fill="rgb(0,0,0)" stroke="none">0.52</tspan></tspan></tspan></text>
 <text class="TextShape"><tspan class="TextParagraph" font-family="Liberation Sans, sans-serif" font-size="353px" font-weight="400"><tspan class="TextPosition" x="3359" y="11090"><tspan fill="rgb(0,0,0)" stroke="none">0.53</tspan></tspan></tspan></text>
 <text class="TextShape"><tspan class="TextParagraph" font-family="Liberation Sans, sans-serif" font-size="353px" font-weight="400"><tspan class="TextPosition" x="4713" y="11090"><tspan fill="rgb(0,0,0)" stroke="none">0.54</tspan></tspan></tspan></text>
 <text class="TextShape"><tspan class="TextParagraph" font-family="Liberation Sans, sans-serif" font-size="353px" font-weight="400"><tspan class="TextPosition" x="6068" y="11090"><tspan fill="rgb(0,0,0)" stroke="none">0.55</tspan></tspan></tspan></text>
 <text class="TextShape"><tspan class="TextParagraph" font-family="Liberation Sans, sans-serif" font-size="353px" font-weight="400"><tspan class="TextPosition" x="7422" y="11090"><tspan fill="rgb(0,0,0)" stroke="none">0.56</tspan></tspan></tspan></text>
 <text class="TextShape"><tspan class="TextParagraph" font-family="Liberation Sans, sans-serif" font-size="353px" font-weight="400"><tspan class="TextPosition" x="8777" y="11090"><tspan fill="rgb(0,0,0)" stroke="none">0.57</tspan></tspan></tspan></text>
 <text class="TextShape"><tspan class="TextParagraph" font-family="Liberation Sans, sans-serif" font-size="353px" font-weight="400"><tspan class="TextPosition" x="10131" y="11090"><tspan fill="rgb(0,0,0)" stroke="none">0.58</tspan></tspan></tspan></text>
 <text class="TextShape"><tspan class="TextParagraph" font-family="Liberation Sans, sans-serif" font-size="353px" font-weight="400"><tspan class="TextPosition" x="11485" y="11090"><tspan fill="rgb(0,0,0)" stroke="none">0.59</tspan></tspan></tspan></text>
 <text class="TextShape"><tspan class="TextParagraph" font-family="Liberation Sans, sans-serif" font-size="353px" font-weight="400"><tspan class="TextPosition" x="12933" y="11090"><tspan fill="rgb(0,0,0)" stroke="none">0.6</tspan></tspan></tspan></text>
 <text class="TextShape"><tspan class="TextParagraph" font-family="Liberation Sans, sans-serif" font-size="353px" font-weight="400"><tspan class="TextPosition" x="14194" y="11090"><tspan fill="rgb(0,0,0)" stroke="none">0.61</tspan></tspan></tspan></text>
 <text class="TextShape"><tspan class="TextParagraph" font-family="Liberation Sans, sans-serif" font-size="353px" font-weight="400"><tspan class="TextPosition" x="15549" y="11090"><tspan fill="rgb(0,0,0)" stroke="none">0.62</tspan></tspan></tspan></text>
 <text class="TextShape"><tspan class="TextParagraph" font-family="Liberation Sans, sans-serif" font-size="353px" font-weight="400"><tspan class="TextPosition" x="1901" y="10643"><tspan fill="rgb(0,0,0)" stroke="none">0</tspan></tspan></tspan></text>
 <text class="TextShape"><tspan class="TextParagraph" font-family="Liberation Sans, sans-serif" font-size="353px" font-weight="400"><tspan class="TextPosition" x="1716" y="9159"><tspan fill="rgb(0,0,0)" stroke="none">10</tspan></tspan></tspan></text>
 <text class="TextShape"><tspan class="TextParagraph" font-family="Liberation Sans, sans-serif" font-size="353px" font-weight="400"><tspan class="TextPosition" x="1716" y="7675"><tspan fill="rgb(0,0,0)" stroke="none">20</tspan></tspan></tspan></text>
 <text class="TextShape"><tspan class="TextParagraph" font-family="Liberation Sans, sans-serif" font-size="353px" font-weight="400"><tspan class="TextPosition" x="1716" y="6191"><tspan fill="rgb(0,0,0)" stroke="none">30</tspan></tspan></tspan></text>
 <text class="TextShape"><tspan class="TextParagraph" font-family="Liberation Sans, sans-serif" font-size="353px" font-weight="400"><tspan class="TextPosition" x="1716" y="4707"><tspan fill="rgb(0,0,0)" stroke="none">40</tspan></tspan></tspan></text>
 <text class="TextShape"><tspan class="TextParagraph" font-family="Liberation Sans, sans-serif" font-size="353px" font-weight="400"><tspan class="TextPosition" x="1716" y="3223"><tspan fill="rgb(0,0,0)" stroke="none">50</tspan></tspan></tspan></text>
 <text class="TextShape"><tspan class="TextParagraph" font-family="Liberation Sans, sans-serif" font-size="353px" font-weight="400"><tspan class="TextPosition" x="1716" y="1739"><tspan fill="rgb(0,0,0)" stroke="none">60</tspan></tspan></tspan></text>
 <text class="TextShape"><tspan class="TextParagraph" font-family="Liberation Sans, sans-serif" font-size="459px" font-weight="400"><tspan class="TextPosition" x="7260" y="924"><tspan fill="rgb(0,0,0)" stroke="none">σ for different values of NN cut</tspan></tspan></tspan></text>
 <path fill="rgb(0,69,134)" stroke="none" d="M 16739,5744 L 16739,5955 16950,5955 16950,5744 16739,5744 Z"/>
 <path fill="none" stroke="rgb(0,69,134)" stroke-linejoin="round" d="M 16739,5744 L 16739,5955 16950,5955 16950,5744 16739,5744 Z"/>
 <path fill="rgb(255,66,14)" stroke="none" d="M 16739,6347 L 16844,6452 16950,6347 16844,6242 16739,6347 Z"/>
 <path fill="none" stroke="rgb(255,66,14)" stroke-linejoin="round" d="M 16739,6347 L 16844,6452 16950,6347 16844,6242 16739,6347 Z"/>
 <path fill="rgb(255,211,32)" stroke="none" d="M 16739,6739 L 16844,6950 16950,6739 16739,6739 Z"/>
 <path fill="none" stroke="rgb(255,211,32)" stroke-linejoin="round" d="M 16739,6739 L 16844,6950 16950,6739 16739,6739 Z"/>
 <text class="TextShape"><tspan class="TextParagraph" font-family="Liberation Sans, sans-serif" font-size="353px" font-weight="400"><tspan class="TextPosition" x="17050" y="5969"><tspan fill="rgb(0,0,0)" stroke="none">Λ(1520)</tspan></tspan></tspan></text>
 <text class="TextShape"><tspan class="TextParagraph" font-family="Liberation Sans, sans-serif" font-size="353px" font-weight="400"><tspan class="TextPosition" x="17050" y="6466"><tspan fill="rgb(0,0,0)" stroke="none">Λ(1116) from Λ0 K0  </tspan></tspan></tspan></text>
 <text class="TextShape"><tspan class="TextParagraph" font-family="Liberation Sans, sans-serif" font-size="353px" font-weight="400"><tspan class="TextPosition" x="17050" y="6964"><tspan fill="rgb(0,0,0)" stroke="none">K0 from Λ0 K0  </tspan></tspan></tspan></text>
 <text class="TextShape"><tspan class="TextParagraph" font-family="Liberation Sans, sans-serif" font-size="494px" font-weight="400"><tspan class="TextPosition" x="7402" y="12022"><tspan fill="rgb(0,0,0)" stroke="none">NN output cut</tspan></tspan></tspan></text>
 <text class="TextShape" transform="rotate(-90 1049 6877)"><tspan class="TextParagraph" font-family="Liberation Sans, sans-serif" font-size="494px" font-weight="400"><tspan class="TextPosition" x="1049" y="6877"><tspan fill="rgb(0,0,0)" stroke="none">σ[μb]</tspan></tspan></tspan></text>
</svg>