<?xml version="1.0" encoding="UTF-8"?>
<!DOCTYPE svg PUBLIC "-//W3C//DTD SVG 1.1//EN" "http://www.w3.org/Graphics/SVG/1.1/DTD/svg11.dtd">
<svg width="171mm" height="109mm" viewBox="0 0 17100 10900" version="1.1" xmlns="http://www.w3.org/2000/svg" xmlns:xlink="http://www.w3.org/1999/xlink" stroke-width="28.222" stroke-linejoin="round" xml:space="preserve">
 <path fill="rgb(255,255,255)" stroke="none" d="M 8559,10901 L 0,10901 0,0 17117,0 17117,10901 8559,10901 Z"/>
 <path fill="none" stroke="rgb(179,179,179)" stroke-linejoin="round" d="M 9289,8668 L 2176,8668 2176,1550 16403,1550 16403,8668 9289,8668 Z"/>
 <path fill="none" stroke="rgb(179,179,179)" stroke-linejoin="round" d="M 16403,8667 L 2176,8667"/>
 <path fill="none" stroke="rgb(179,179,179)" stroke-linejoin="round" d="M 16403,7480 L 2176,7480"/>
 <path fill="none" stroke="rgb(179,179,179)" stroke-linejoin="round" d="M 16403,6294 L 2176,6294"/>
 <path fill="none" stroke="rgb(179,179,179)" stroke-linejoin="round" d="M 16403,5108 L 2176,5108"/>
 <path fill="none" stroke="rgb(179,179,179)" stroke-linejoin="round" d="M 16403,3922 L 2176,3922"/>
 <path fill="none" stroke="rgb(179,179,179)" stroke-linejoin="round" d="M 16403,2735 L 2176,2735"/>
 <path fill="none" stroke="rgb(179,179,179)" stroke-linejoin="round" d="M 16403,1549 L 2176,1549"/>
 <path fill="none" stroke="rgb(179,179,179)" stroke-linejoin="round" d="M 2176,8817 L 2176,8667"/>
 <path fill="none" stroke="rgb(179,179,179)" stroke-linejoin="round" d="M 2176,8817 L 2176,8667"/>
 <path fill="none" stroke="rgb(179,179,179)" stroke-linejoin="round" d="M 3598,8817 L 3598,8667"/>
 <path fill="none" stroke="rgb(179,179,179)" stroke-linejoin="round" d="M 3598,8817 L 3598,8667"/>
 <path fill="none" stroke="rgb(179,179,179)" stroke-linejoin="round" d="M 5021,8817 L 5021,8667"/>
 <path fill="none" stroke="rgb(179,179,179)" stroke-linejoin="round" d="M 5021,8817 L 5021,8667"/>
 <path fill="none" stroke="rgb(179,179,179)" stroke-linejoin="round" d="M 6444,8817 L 6444,8667"/>
 <path fill="none" stroke="rgb(179,179,179)" stroke-linejoin="round" d="M 6444,8817 L 6444,8667"/>
 <path fill="none" stroke="rgb(179,179,179)" stroke-linejoin="round" d="M 7867,8817 L 7867,8667"/>
 <path fill="none" stroke="rgb(179,179,179)" stroke-linejoin="round" d="M 7867,8817 L 7867,8667"/>
 <path fill="none" stroke="rgb(179,179,179)" stroke-linejoin="round" d="M 9289,8817 L 9289,8667"/>
 <path fill="none" stroke="rgb(179,179,179)" stroke-linejoin="round" d="M 9289,8817 L 9289,8667"/>
 <path fill="none" stroke="rgb(179,179,179)" stroke-linejoin="round" d="M 10711,8817 L 10711,8667"/>
 <path fill="none" stroke="rgb(179,179,179)" stroke-linejoin="round" d="M 10711,8817 L 10711,8667"/>
 <path fill="none" stroke="rgb(179,179,179)" stroke-linejoin="round" d="M 12134,8817 L 12134,8667"/>
 <path fill="none" stroke="rgb(179,179,179)" stroke-linejoin="round" d="M 12134,8817 L 12134,8667"/>
 <path fill="none" stroke="rgb(179,179,179)" stroke-linejoin="round" d="M 13557,8817 L 13557,8667"/>
 <path fill="none" stroke="rgb(179,179,179)" stroke-linejoin="round" d="M 13557,8817 L 13557,8667"/>
 <path fill="none" stroke="rgb(179,179,179)" stroke-linejoin="round" d="M 14980,8817 L 14980,8667"/>
 <path fill="none" stroke="rgb(179,179,179)" stroke-linejoin="round" d="M 14980,8817 L 14980,8667"/>
 <path fill="none" stroke="rgb(179,179,179)" stroke-linejoin="round" d="M 16403,8817 L 16403,8667"/>
 <path fill="none" stroke="rgb(179,179,179)" stroke-linejoin="round" d="M 16403,8817 L 16403,8667"/>
 <path fill="none" stroke="rgb(179,179,179)" stroke-linejoin="round" d="M 2176,8667 L 16403,8667"/>
 <path fill="none" stroke="rgb(179,179,179)" stroke-linejoin="round" d="M 2026,8667 L 2176,8667"/>
 <path fill="none" stroke="rgb(179,179,179)" stroke-linejoin="round" d="M 2026,8667 L 2176,8667"/>
 <path fill="none" stroke="rgb(179,179,179)" stroke-linejoin="round" d="M 2026,7480 L 2176,7480"/>
 <path fill="none" stroke="rgb(179,179,179)" stroke-linejoin="round" d="M 2026,7480 L 2176,7480"/>
 <path fill="none" stroke="rgb(179,179,179)" stroke-linejoin="round" d="M 2026,6294 L 2176,6294"/>
 <path fill="none" stroke="rgb(179,179,179)" stroke-linejoin="round" d="M 2026,6294 L 2176,6294"/>
 <path fill="none" stroke="rgb(179,179,179)" stroke-linejoin="round" d="M 2026,5108 L 2176,5108"/>
 <path fill="none" stroke="rgb(179,179,179)" stroke-linejoin="round" d="M 2026,5108 L 2176,5108"/>
 <path fill="none" stroke="rgb(179,179,179)" stroke-linejoin="round" d="M 2026,3922 L 2176,3922"/>
 <path fill="none" stroke="rgb(179,179,179)" stroke-linejoin="round" d="M 2026,3922 L 2176,3922"/>
 <path fill="none" stroke="rgb(179,179,179)" stroke-linejoin="round" d="M 2026,2735 L 2176,2735"/>
 <path fill="none" stroke="rgb(179,179,179)" stroke-linejoin="round" d="M 2026,2735 L 2176,2735"/>
 <path fill="none" stroke="rgb(179,179,179)" stroke-linejoin="round" d="M 2026,1549 L 2176,1549"/>
 <path fill="none" stroke="rgb(179,179,179)" stroke-linejoin="round" d="M 2026,1549 L 2176,1549"/>
 <path fill="none" stroke="rgb(179,179,179)" stroke-linejoin="round" d="M 2176,8667 L 2176,1549"/>
 <path fill="rgb(0,69,134)" stroke="none" d="M 9164,6114 L 9164,6364 9414,6364 9414,6114 9164,6114 Z"/>
 <path fill="none" stroke="rgb(0,69,134)" stroke-linejoin="round" d="M 9164,6114 L 9164,6364 9414,6364 9414,6114 9164,6114 Z"/>
 <path fill="rgb(0,69,134)" stroke="none" d="M 12009,4667 L 12009,4917 12259,4917 12259,4667 12009,4667 Z"/>
 <path fill="none" stroke="rgb(0,69,134)" stroke-linejoin="round" d="M 12009,4667 L 12009,4917 12259,4917 12259,4667 12009,4667 Z"/>
 <path fill="rgb(0,69,134)" stroke="none" d="M 14855,3481 L 14855,3731 15105,3731 15105,3481 14855,3481 Z"/>
 <path fill="none" stroke="rgb(0,69,134)" stroke-linejoin="round" d="M 14855,3481 L 14855,3731 15105,3731 15105,3481 14855,3481 Z"/>
 <path fill="rgb(0,69,134)" stroke="none" d="M 6319,4032 L 6319,4282 6569,4282 6569,4032 6319,4032 Z"/>
 <path fill="none" stroke="rgb(0,69,134)" stroke-linejoin="round" d="M 6319,4032 L 6319,4282 6569,4282 6569,4032 6319,4032 Z"/>
 <path fill="rgb(0,69,134)" stroke="none" d="M 3473,7393 L 3473,7643 3723,7643 3723,7393 3473,7393 Z"/>
 <path fill="none" stroke="rgb(0,69,134)" stroke-linejoin="round" d="M 3473,7393 L 3473,7643 3723,7643 3723,7393 3473,7393 Z"/>
 <text class="TextShape"><tspan class="TextParagraph" font-family="Liberation Sans, sans-serif" font-size="353px" font-weight="400"><tspan class="TextPosition" x="1991" y="9235"><tspan fill="rgb(0,0,0)" stroke="none">15</tspan></tspan></tspan></text>
 <text class="TextShape"><tspan class="TextParagraph" font-family="Liberation Sans, sans-serif" font-size="353px" font-weight="400"><tspan class="TextPosition" x="3413" y="9235"><tspan fill="rgb(0,0,0)" stroke="none">16</tspan></tspan></tspan></text>
 <text class="TextShape"><tspan class="TextParagraph" font-family="Liberation Sans, sans-serif" font-size="353px" font-weight="400"><tspan class="TextPosition" x="4836" y="9235"><tspan fill="rgb(0,0,0)" stroke="none">17</tspan></tspan></tspan></text>
 <text class="TextShape"><tspan class="TextParagraph" font-family="Liberation Sans, sans-serif" font-size="353px" font-weight="400"><tspan class="TextPosition" x="6259" y="9235"><tspan fill="rgb(0,0,0)" stroke="none">18</tspan></tspan></tspan></text>
 <text class="TextShape"><tspan class="TextParagraph" font-family="Liberation Sans, sans-serif" font-size="353px" font-weight="400"><tspan class="TextPosition" x="7682" y="9235"><tspan fill="rgb(0,0,0)" stroke="none">19</tspan></tspan></tspan></text>
 <text class="TextShape"><tspan class="TextParagraph" font-family="Liberation Sans, sans-serif" font-size="353px" font-weight="400"><tspan class="TextPosition" x="9105" y="9235"><tspan fill="rgb(0,0,0)" stroke="none">20</tspan></tspan></tspan></text>
 <text class="TextShape"><tspan class="TextParagraph" font-family="Liberation Sans, sans-serif" font-size="353px" font-weight="400"><tspan class="TextPosition" x="10527" y="9235"><tspan fill="rgb(0,0,0)" stroke="none">21</tspan></tspan></tspan></text>
 <text class="TextShape"><tspan class="TextParagraph" font-family="Liberation Sans, sans-serif" font-size="353px" font-weight="400"><tspan class="TextPosition" x="11950" y="9235"><tspan fill="rgb(0,0,0)" stroke="none">22</tspan></tspan></tspan></text>
 <text class="TextShape"><tspan class="TextParagraph" font-family="Liberation Sans, sans-serif" font-size="353px" font-weight="400"><tspan class="TextPosition" x="13373" y="9235"><tspan fill="rgb(0,0,0)" stroke="none">23</tspan></tspan></tspan></text>
 <text class="TextShape"><tspan class="TextParagraph" font-family="Liberation Sans, sans-serif" font-size="353px" font-weight="400"><tspan class="TextPosition" x="14796" y="9235"><tspan fill="rgb(0,0,0)" stroke="none">24</tspan></tspan></tspan></text>
 <text class="TextShape"><tspan class="TextParagraph" font-family="Liberation Sans, sans-serif" font-size="353px" font-weight="400"><tspan class="TextPosition" x="16219" y="9235"><tspan fill="rgb(0,0,0)" stroke="none">25</tspan></tspan></tspan></text>
 <text class="TextShape"><tspan class="TextParagraph" font-family="Liberation Sans, sans-serif" font-size="353px" font-weight="400"><tspan class="TextPosition" x="1741" y="8788"><tspan fill="rgb(0,0,0)" stroke="none">6</tspan></tspan></tspan></text>
 <text class="TextShape"><tspan class="TextParagraph" font-family="Liberation Sans, sans-serif" font-size="353px" font-weight="400"><tspan class="TextPosition" x="1741" y="7601"><tspan fill="rgb(0,0,0)" stroke="none">7</tspan></tspan></tspan></text>
 <text class="TextShape"><tspan class="TextParagraph" font-family="Liberation Sans, sans-serif" font-size="353px" font-weight="400"><tspan class="TextPosition" x="1741" y="6415"><tspan fill="rgb(0,0,0)" stroke="none">8</tspan></tspan></tspan></text>
 <text class="TextShape"><tspan class="TextParagraph" font-family="Liberation Sans, sans-serif" font-size="353px" font-weight="400"><tspan class="TextPosition" x="1741" y="5228"><tspan fill="rgb(0,0,0)" stroke="none">9</tspan></tspan></tspan></text>
 <text class="TextShape"><tspan class="TextParagraph" font-family="Liberation Sans, sans-serif" font-size="353px" font-weight="400"><tspan class="TextPosition" x="1556" y="4042"><tspan fill="rgb(0,0,0)" stroke="none">10</tspan></tspan></tspan></text>
 <text class="TextShape"><tspan class="TextParagraph" font-family="Liberation Sans, sans-serif" font-size="353px" font-weight="400"><tspan class="TextPosition" x="1556" y="2855"><tspan fill="rgb(0,0,0)" stroke="none">11</tspan></tspan></tspan></text>
 <text class="TextShape"><tspan class="TextParagraph" font-family="Liberation Sans, sans-serif" font-size="353px" font-weight="400"><tspan class="TextPosition" x="1556" y="1669"><tspan fill="rgb(0,0,0)" stroke="none">12</tspan></tspan></tspan></text>
 <text class="TextShape"><tspan class="TextParagraph" font-family="Liberation Sans, sans-serif" font-size="459px" font-weight="400"><tspan class="TextPosition" x="7778" y="889"><tspan fill="rgb(0,0,0)" stroke="none">Λ(1520)</tspan></tspan></tspan></text>
 <text class="TextShape"><tspan class="TextParagraph" font-family="Liberation Sans, sans-serif" font-size="564px" font-weight="400"><tspan class="TextPosition" x="8146" y="10207"><tspan fill="rgb(0,0,0)" stroke="none">OA [deg]</tspan></tspan></tspan></text>
 <text class="TextShape" transform="rotate(-90 1123 6060)"><tspan class="TextParagraph" font-family="Liberation Sans, sans-serif" font-size="564px" font-weight="400"><tspan class="TextPosition" x="1123" y="6060"><tspan fill="rgb(0,0,0)" stroke="none">σ [μb]</tspan></tspan></tspan></text>
</svg>