<?xml version="1.0" encoding="UTF-8"?>
<!DOCTYPE svg PUBLIC "-//W3C//DTD SVG 1.1//EN" "http://www.w3.org/Graphics/SVG/1.1/DTD/svg11.dtd">
<svg width="167mm" height="112mm" viewBox="0 0 16700 11200" version="1.1" xmlns="http://www.w3.org/2000/svg" xmlns:xlink="http://www.w3.org/1999/xlink" stroke-width="28.222" stroke-linejoin="round" xml:space="preserve">
 <path fill="rgb(255,255,255)" stroke="none" d="M 8357,11180 L 0,11180 0,0 16714,0 16714,11180 8357,11180 Z"/>
 <path fill="none" stroke="rgb(179,179,179)" stroke-linejoin="round" d="M 9157,8897 L 2363,8897 2363,1771 15951,1771 15951,8897 9157,8897 Z"/>
 <path fill="none" stroke="rgb(179,179,179)" stroke-linejoin="round" d="M 15951,8896 L 2363,8896"/>
 <path fill="none" stroke="rgb(179,179,179)" stroke-linejoin="round" d="M 15951,7708 L 2363,7708"/>
 <path fill="none" stroke="rgb(179,179,179)" stroke-linejoin="round" d="M 15951,6520 L 2363,6520"/>
 <path fill="none" stroke="rgb(179,179,179)" stroke-linejoin="round" d="M 15951,5333 L 2363,5333"/>
 <path fill="none" stroke="rgb(179,179,179)" stroke-linejoin="round" d="M 15951,4145 L 2363,4145"/>
 <path fill="none" stroke="rgb(179,179,179)" stroke-linejoin="round" d="M 15951,2957 L 2363,2957"/>
 <path fill="none" stroke="rgb(179,179,179)" stroke-linejoin="round" d="M 15951,1769 L 2363,1769"/>
 <path fill="none" stroke="rgb(179,179,179)" stroke-linejoin="round" d="M 2363,9046 L 2363,8896"/>
 <path fill="none" stroke="rgb(179,179,179)" stroke-linejoin="round" d="M 2363,9046 L 2363,8896"/>
 <path fill="none" stroke="rgb(179,179,179)" stroke-linejoin="round" d="M 3721,9046 L 3721,8896"/>
 <path fill="none" stroke="rgb(179,179,179)" stroke-linejoin="round" d="M 3721,9046 L 3721,8896"/>
 <path fill="none" stroke="rgb(179,179,179)" stroke-linejoin="round" d="M 5080,9046 L 5080,8896"/>
 <path fill="none" stroke="rgb(179,179,179)" stroke-linejoin="round" d="M 5080,9046 L 5080,8896"/>
 <path fill="none" stroke="rgb(179,179,179)" stroke-linejoin="round" d="M 6439,9046 L 6439,8896"/>
 <path fill="none" stroke="rgb(179,179,179)" stroke-linejoin="round" d="M 6439,9046 L 6439,8896"/>
 <path fill="none" stroke="rgb(179,179,179)" stroke-linejoin="round" d="M 7798,9046 L 7798,8896"/>
 <path fill="none" stroke="rgb(179,179,179)" stroke-linejoin="round" d="M 7798,9046 L 7798,8896"/>
 <path fill="none" stroke="rgb(179,179,179)" stroke-linejoin="round" d="M 9156,9046 L 9156,8896"/>
 <path fill="none" stroke="rgb(179,179,179)" stroke-linejoin="round" d="M 9156,9046 L 9156,8896"/>
 <path fill="none" stroke="rgb(179,179,179)" stroke-linejoin="round" d="M 10515,9046 L 10515,8896"/>
 <path fill="none" stroke="rgb(179,179,179)" stroke-linejoin="round" d="M 10515,9046 L 10515,8896"/>
 <path fill="none" stroke="rgb(179,179,179)" stroke-linejoin="round" d="M 11874,9046 L 11874,8896"/>
 <path fill="none" stroke="rgb(179,179,179)" stroke-linejoin="round" d="M 11874,9046 L 11874,8896"/>
 <path fill="none" stroke="rgb(179,179,179)" stroke-linejoin="round" d="M 13233,9046 L 13233,8896"/>
 <path fill="none" stroke="rgb(179,179,179)" stroke-linejoin="round" d="M 13233,9046 L 13233,8896"/>
 <path fill="none" stroke="rgb(179,179,179)" stroke-linejoin="round" d="M 14592,9046 L 14592,8896"/>
 <path fill="none" stroke="rgb(179,179,179)" stroke-linejoin="round" d="M 14592,9046 L 14592,8896"/>
 <path fill="none" stroke="rgb(179,179,179)" stroke-linejoin="round" d="M 15951,9046 L 15951,8896"/>
 <path fill="none" stroke="rgb(179,179,179)" stroke-linejoin="round" d="M 15951,9046 L 15951,8896"/>
 <path fill="none" stroke="rgb(179,179,179)" stroke-linejoin="round" d="M 2363,8896 L 15951,8896"/>
 <path fill="none" stroke="rgb(179,179,179)" stroke-linejoin="round" d="M 2213,8896 L 2363,8896"/>
 <path fill="none" stroke="rgb(179,179,179)" stroke-linejoin="round" d="M 2213,8896 L 2363,8896"/>
 <path fill="none" stroke="rgb(179,179,179)" stroke-linejoin="round" d="M 2213,7708 L 2363,7708"/>
 <path fill="none" stroke="rgb(179,179,179)" stroke-linejoin="round" d="M 2213,7708 L 2363,7708"/>
 <path fill="none" stroke="rgb(179,179,179)" stroke-linejoin="round" d="M 2213,6520 L 2363,6520"/>
 <path fill="none" stroke="rgb(179,179,179)" stroke-linejoin="round" d="M 2213,6520 L 2363,6520"/>
 <path fill="none" stroke="rgb(179,179,179)" stroke-linejoin="round" d="M 2213,5333 L 2363,5333"/>
 <path fill="none" stroke="rgb(179,179,179)" stroke-linejoin="round" d="M 2213,5333 L 2363,5333"/>
 <path fill="none" stroke="rgb(179,179,179)" stroke-linejoin="round" d="M 2213,4145 L 2363,4145"/>
 <path fill="none" stroke="rgb(179,179,179)" stroke-linejoin="round" d="M 2213,4145 L 2363,4145"/>
 <path fill="none" stroke="rgb(179,179,179)" stroke-linejoin="round" d="M 2213,2957 L 2363,2957"/>
 <path fill="none" stroke="rgb(179,179,179)" stroke-linejoin="round" d="M 2213,2957 L 2363,2957"/>
 <path fill="none" stroke="rgb(179,179,179)" stroke-linejoin="round" d="M 2213,1769 L 2363,1769"/>
 <path fill="none" stroke="rgb(179,179,179)" stroke-linejoin="round" d="M 2213,1769 L 2363,1769"/>
 <path fill="none" stroke="rgb(179,179,179)" stroke-linejoin="round" d="M 2363,8896 L 2363,1769"/>
 <path fill="rgb(0,69,134)" stroke="none" d="M 9031,3817 L 9031,4067 9281,4067 9281,3817 9031,3817 Z"/>
 <path fill="none" stroke="rgb(0,69,134)" stroke-linejoin="round" d="M 9031,3817 L 9031,4067 9281,4067 9281,3817 9031,3817 Z"/>
 <path fill="rgb(0,69,134)" stroke="none" d="M 6314,2807 L 6314,3057 6564,3057 6564,2807 6314,2807 Z"/>
 <path fill="none" stroke="rgb(0,69,134)" stroke-linejoin="round" d="M 6314,2807 L 6314,3057 6564,3057 6564,2807 6314,2807 Z"/>
 <path fill="rgb(0,69,134)" stroke="none" d="M 3596,3656 L 3596,3906 3846,3906 3846,3656 3596,3656 Z"/>
 <path fill="none" stroke="rgb(0,69,134)" stroke-linejoin="round" d="M 3596,3656 L 3596,3906 3846,3906 3846,3656 3596,3656 Z"/>
 <path fill="rgb(0,69,134)" stroke="none" d="M 11749,3942 L 11749,4192 11999,4192 11999,3942 11749,3942 Z"/>
 <path fill="none" stroke="rgb(0,69,134)" stroke-linejoin="round" d="M 11749,3942 L 11749,4192 11999,4192 11999,3942 11749,3942 Z"/>
 <path fill="rgb(0,69,134)" stroke="none" d="M 14467,3925 L 14467,4175 14717,4175 14717,3925 14467,3925 Z"/>
 <path fill="none" stroke="rgb(0,69,134)" stroke-linejoin="round" d="M 14467,3925 L 14467,4175 14717,4175 14717,3925 14467,3925 Z"/>
 <text class="TextShape"><tspan class="TextParagraph" font-family="Liberation Sans, sans-serif" font-size="353px" font-weight="400"><tspan class="TextPosition" x="2125" y="9464"><tspan fill="rgb(0,0,0)" stroke="none">2.5</tspan></tspan></tspan></text>
 <text class="TextShape"><tspan class="TextParagraph" font-family="Liberation Sans, sans-serif" font-size="353px" font-weight="400"><tspan class="TextPosition" x="3628" y="9464"><tspan fill="rgb(0,0,0)" stroke="none">3</tspan></tspan></tspan></text>
 <text class="TextShape"><tspan class="TextParagraph" font-family="Liberation Sans, sans-serif" font-size="353px" font-weight="400"><tspan class="TextPosition" x="4842" y="9464"><tspan fill="rgb(0,0,0)" stroke="none">3.5</tspan></tspan></tspan></text>
 <text class="TextShape"><tspan class="TextParagraph" font-family="Liberation Sans, sans-serif" font-size="353px" font-weight="400"><tspan class="TextPosition" x="6346" y="9464"><tspan fill="rgb(0,0,0)" stroke="none">4</tspan></tspan></tspan></text>
 <text class="TextShape"><tspan class="TextParagraph" font-family="Liberation Sans, sans-serif" font-size="353px" font-weight="400"><tspan class="TextPosition" x="7560" y="9464"><tspan fill="rgb(0,0,0)" stroke="none">4.5</tspan></tspan></tspan></text>
 <text class="TextShape"><tspan class="TextParagraph" font-family="Liberation Sans, sans-serif" font-size="353px" font-weight="400"><tspan class="TextPosition" x="9064" y="9464"><tspan fill="rgb(0,0,0)" stroke="none">5</tspan></tspan></tspan></text>
 <text class="TextShape"><tspan class="TextParagraph" font-family="Liberation Sans, sans-serif" font-size="353px" font-weight="400"><tspan class="TextPosition" x="10278" y="9464"><tspan fill="rgb(0,0,0)" stroke="none">5.5</tspan></tspan></tspan></text>
 <text class="TextShape"><tspan class="TextParagraph" font-family="Liberation Sans, sans-serif" font-size="353px" font-weight="400"><tspan class="TextPosition" x="11782" y="9464"><tspan fill="rgb(0,0,0)" stroke="none">6</tspan></tspan></tspan></text>
 <text class="TextShape"><tspan class="TextParagraph" font-family="Liberation Sans, sans-serif" font-size="353px" font-weight="400"><tspan class="TextPosition" x="12996" y="9464"><tspan fill="rgb(0,0,0)" stroke="none">6.5</tspan></tspan></tspan></text>
 <text class="TextShape"><tspan class="TextParagraph" font-family="Liberation Sans, sans-serif" font-size="353px" font-weight="400"><tspan class="TextPosition" x="14500" y="9464"><tspan fill="rgb(0,0,0)" stroke="none">7</tspan></tspan></tspan></text>
 <text class="TextShape"><tspan class="TextParagraph" font-family="Liberation Sans, sans-serif" font-size="353px" font-weight="400"><tspan class="TextPosition" x="15714" y="9464"><tspan fill="rgb(0,0,0)" stroke="none">7.5</tspan></tspan></tspan></text>
 <text class="TextShape"><tspan class="TextParagraph" font-family="Liberation Sans, sans-serif" font-size="353px" font-weight="400"><tspan class="TextPosition" x="1928" y="9017"><tspan fill="rgb(0,0,0)" stroke="none">6</tspan></tspan></tspan></text>
 <text class="TextShape"><tspan class="TextParagraph" font-family="Liberation Sans, sans-serif" font-size="353px" font-weight="400"><tspan class="TextPosition" x="1928" y="7829"><tspan fill="rgb(0,0,0)" stroke="none">7</tspan></tspan></tspan></text>
 <text class="TextShape"><tspan class="TextParagraph" font-family="Liberation Sans, sans-serif" font-size="353px" font-weight="400"><tspan class="TextPosition" x="1928" y="6641"><tspan fill="rgb(0,0,0)" stroke="none">8</tspan></tspan></tspan></text>
 <text class="TextShape"><tspan class="TextParagraph" font-family="Liberation Sans, sans-serif" font-size="353px" font-weight="400"><tspan class="TextPosition" x="1928" y="5453"><tspan fill="rgb(0,0,0)" stroke="none">9</tspan></tspan></tspan></text>
 <text class="TextShape"><tspan class="TextParagraph" font-family="Liberation Sans, sans-serif" font-size="353px" font-weight="400"><tspan class="TextPosition" x="1743" y="4265"><tspan fill="rgb(0,0,0)" stroke="none">10</tspan></tspan></tspan></text>
 <text class="TextShape"><tspan class="TextParagraph" font-family="Liberation Sans, sans-serif" font-size="353px" font-weight="400"><tspan class="TextPosition" x="1743" y="3077"><tspan fill="rgb(0,0,0)" stroke="none">11</tspan></tspan></tspan></text>
 <text class="TextShape"><tspan class="TextParagraph" font-family="Liberation Sans, sans-serif" font-size="353px" font-weight="400"><tspan class="TextPosition" x="1743" y="1889"><tspan fill="rgb(0,0,0)" stroke="none">12</tspan></tspan></tspan></text>
 <text class="TextShape"><tspan class="TextParagraph" font-family="Liberation Sans, sans-serif" font-size="459px" font-weight="400"><tspan class="TextPosition" x="7576" y="894"><tspan fill="rgb(0,0,0)" stroke="none">Λ(1520)</tspan></tspan></tspan></text>
 <text class="TextShape"><tspan class="TextParagraph" font-family="Liberation Sans, sans-serif" font-size="564px" font-weight="400"><tspan class="TextPosition" x="6294" y="10441"><tspan fill="rgb(0,0,0)" stroke="none">PV-SV distance [mm]</tspan></tspan></tspan></text>
 <text class="TextShape" transform="rotate(-90 1154 6139)"><tspan class="TextParagraph" font-family="Liberation Sans, sans-serif" font-size="494px" font-weight="400"><tspan class="TextPosition" x="1154" y="6139"><tspan fill="rgb(0,0,0)" stroke="none">σ[μb]</tspan></tspan></tspan></text>
</svg>